<?xml version="1.0" standalone="no"?>
<!DOCTYPE svg PUBLIC "-//W3C//DTD SVG 20010904//EN"
 "http://www.w3.org/TR/2001/REC-SVG-20010904/DTD/svg10.dtd">
<svg version="1.0" xmlns="http://www.w3.org/2000/svg"
 width="500.000000pt" height="500.000000pt" viewBox="0 0 500.000000 500.000000"
 preserveAspectRatio="xMidYMid meet">

<g transform="translate(0.000000,500.000000) scale(0.100000,-0.100000)"
fill="#000000" stroke="none">
<path d="M0 2500 l0 -2500 2500 0 2500 0 0 2500 0 2500 -2500 0 -2500 0 0
-2500z m1490 0 l0 -550 -550 0 -550 0 0 550 0 550 550 0 550 0 0 -550z m470
250 c0 -19 -7 -20 -90 -20 l-90 0 0 -60 0 -60 80 0 c73 0 80 -2 80 -20 0 -18
-7 -20 -80 -20 l-80 0 0 -65 c0 -63 -1 -65 -25 -65 l-25 0 0 165 0 165 115 0
c108 0 115 -1 115 -20z m235 -80 c-41 -54 -75 -102 -75 -105 0 -3 27 -5 60 -5
l60 0 0 35 c0 28 4 35 20 35 16 0 20 -7 20 -35 0 -32 2 -35 30 -35 23 0 30 -4
30 -20 0 -16 -7 -20 -30 -20 -28 0 -30 -2 -30 -40 0 -33 -3 -40 -20 -40 -17 0
-20 7 -20 40 l0 40 -90 0 c-79 0 -90 2 -90 18 0 9 37 66 81 125 64 84 87 107
106 107 22 0 17 -9 -52 -100z m315 -45 l0 -145 85 0 c78 0 85 -2 85 -20 0 -19
-7 -20 -110 -20 l-110 0 0 165 0 165 25 0 25 0 0 -145z m340 -20 l0 -165 -25
0 -25 0 0 165 0 165 25 0 25 0 0 -165z m390 145 c0 -19 -7 -20 -90 -20 l-90 0
0 -60 0 -60 80 0 c73 0 80 -2 80 -20 0 -18 -7 -20 -80 -20 l-80 0 0 -65 c0
-63 -1 -65 -25 -65 l-25 0 0 165 0 165 115 0 c108 0 115 -1 115 -20z m360 0
c0 -19 -7 -20 -90 -20 l-90 0 0 -50 0 -50 80 0 c73 0 80 -2 80 -20 0 -18 -7
-20 -80 -20 l-80 0 0 -55 0 -55 90 0 c83 0 90 -1 90 -20 0 -19 -7 -20 -115
-20 l-115 0 0 165 0 165 115 0 c108 0 115 -1 115 -20z m-1890 -507 c0 -5 7
-17 16 -28 14 -19 15 -19 39 10 l24 30 -1 -50 c-1 -39 -2 -43 -5 -15 l-5 34
-18 -24 -19 -25 -18 25 -18 25 -6 -35 c-6 -33 -6 -32 -8 13 0 26 4 47 9 47 6
0 10 -3 10 -7z m194 -15 c13 -19 14 -25 2 -43 -26 -39 -76 -26 -76 19 0 46 48
62 74 24z m112 -27 c1 -37 -1 -41 -11 -27 -16 21 -42 21 -48 -1 -3 -10 -5 4
-6 30 l-1 48 33 -3 c31 -3 32 -5 33 -47z m108 -6 c11 -28 12 -35 2 -22 -7 9
-21 17 -31 17 -10 0 -24 -8 -32 -17 -12 -16 -12 -15 -2 8 8 20 16 25 31 21 15
-4 19 -1 16 9 -3 8 -11 13 -17 12 -12 -3 -15 10 -4 21 9 9 19 -3 37 -49z m114
43 c7 -7 12 -21 12 -33 0 -29 -19 -45 -52 -45 -27 0 -28 2 -28 45 0 43 1 45
28 45 15 0 33 -5 40 -12z m59 -55 c-2 -16 -4 -5 -4 22 0 28 2 40 4 28 2 -13 2
-35 0 -50z m103 30 c21 -54 23 -60 10 -40 -14 22 -60 23 -60 0 0 -9 -3 -13 -7
-10 -7 8 26 87 37 87 3 0 12 -17 20 -37z m95 30 c-37 -9 -40 -22 -6 -34 21 -7
31 -17 29 -28 -4 -18 -45 -28 -59 -14 -6 6 2 8 21 5 40 -6 40 16 0 29 -46 16
-39 50 9 48 21 -1 22 -2 6 -6z m155 -68 c21 0 26 6 31 40 l7 40 -2 -39 c-2
-76 -70 -76 -72 0 l-2 39 7 -40 c5 -34 10 -40 31 -40z m121 43 l28 -33 1 33
c0 17 5 32 10 32 6 0 10 -20 10 -45 0 -53 -10 -57 -40 -15 -27 38 -38 38 -43
-2 -3 -25 -4 -22 -5 15 -1 26 1 47 5 47 3 0 19 -15 34 -32z m96 -35 c-2 -16
-4 -5 -4 22 0 28 2 40 4 28 2 -13 2 -35 0 -50z m62 30 l19 -38 15 38 c9 20 18
37 21 37 3 0 -3 -18 -12 -40 -9 -22 -21 -39 -27 -38 -10 2 -48 78 -40 78 3 0
13 -17 24 -37z m134 30 c-41 -5 -45 -32 -5 -34 l27 -2 -27 -4 c-39 -6 -35 -31
5 -36 31 -4 31 -4 -5 -5 l-38 -2 0 45 0 45 38 -2 c36 -1 36 -1 5 -5z m127 -8
c10 -12 10 -18 0 -30 -10 -12 -10 -18 0 -30 7 -9 8 -15 2 -15 -5 0 -12 7 -16
15 -8 21 -34 19 -39 -2 -3 -10 -5 3 -6 30 -1 43 1 47 23 47 13 0 29 -7 36 -15z
m85 8 c-37 -9 -40 -22 -6 -34 21 -7 31 -17 29 -28 -4 -18 -45 -28 -59 -14 -6
6 2 8 21 5 40 -6 40 16 0 29 -46 16 -39 50 9 48 21 -1 22 -2 6 -6z m72 -60
c-2 -16 -4 -5 -4 22 0 28 2 40 4 28 2 -13 2 -35 0 -50z m96 60 c-19 -4 -23
-11 -25 -46 l-1 -42 -4 42 c-3 29 -9 43 -21 46 -9 3 3 5 28 4 25 0 35 -2 23
-4z m111 -48 c11 -28 12 -35 2 -22 -7 9 -21 17 -31 17 -10 0 -24 -8 -32 -17
-12 -16 -12 -15 -2 8 8 20 16 25 31 21 15 -4 19 -1 16 9 -3 8 -11 13 -17 12
-12 -3 -15 10 -4 21 9 9 19 -3 37 -49z m112 6 c1 -37 -1 -41 -11 -27 -16 21
-42 21 -48 -1 -3 -10 -5 4 -6 30 l-1 48 33 -3 c31 -3 32 -5 33 -47z m51 -18
c-2 -16 -4 -5 -4 22 0 28 2 40 4 28 2 -13 2 -35 0 -50z m107 27 c18 -45 21
-64 5 -37 -5 9 -19 17 -29 17 -10 0 -24 -8 -29 -17 -6 -10 -10 -13 -11 -8 0
18 15 33 37 36 17 3 20 7 13 19 -9 13 -11 13 -20 0 -11 -17 -13 -10 -4 14 10
26 21 19 38 -24z m91 33 c-37 -9 -40 -22 -6 -34 21 -7 31 -17 29 -28 -4 -18
-45 -28 -59 -14 -6 6 2 8 21 5 33 -5 42 14 13 25 -48 17 -51 54 -4 52 20 -1
22 -2 6 -6z"/>
<path d="M410 2500 l0 -520 525 0 525 0 0 520 0 520 -525 0 -525 0 0 -520z
m808 8 l-3 -383 -107 -3 -108 -3 0 386 0 385 110 0 110 0 -2 -382z m-338 -153
l0 -245 -110 0 -110 0 0 245 0 245 110 0 110 0 0 -245z"/>
<path d="M1844 2226 c-10 -25 0 -51 20 -54 27 -6 48 25 35 49 -12 22 -47 25
-55 5z"/>
<path d="M1960 2220 c0 -15 7 -20 25 -20 18 0 25 5 25 20 0 15 -7 20 -25 20
-18 0 -25 -5 -25 -20z"/>
<path d="M2180 2205 c0 -34 2 -36 28 -33 23 3 27 8 27 33 0 25 -4 30 -27 33
-26 3 -28 1 -28 -33z"/>
<path d="M2366 2215 c-3 -9 0 -15 9 -15 16 0 20 16 6 24 -5 3 -11 -1 -15 -9z"/>
<path d="M3140 2220 c0 -13 7 -20 20 -20 13 0 20 7 20 20 0 13 -7 20 -20 20
-13 0 -20 -7 -20 -20z"/>
<path d="M3610 2220 c0 -15 7 -20 25 -20 18 0 25 5 25 20 0 15 -7 20 -25 20
-18 0 -25 -5 -25 -20z"/>
</g>
</svg>
